<?xml version="1.0" encoding="utf-8"?>
<!-- Generator: Adobe Illustrator 24.2.1, SVG Export Plug-In . SVG Version: 6.00 Build 0)  -->
<svg version="1.1" id="Capa_1" xmlns="http://www.w3.org/2000/svg" xmlns:xlink="http://www.w3.org/1999/xlink" x="0px" y="0px"
	 viewBox="0 0 120 120" style="enable-background:new 0 0 120 120;" xml:space="preserve">
<g>
	<path d="M87.7,32.2c-5.7-5.7-14.8-5.7-20.5,0L56.1,43.3c-0.5,0.5-0.5,1.2,0,1.7c0.5,0.5,1.2,0.5,1.7,0L69,33.9
		c2.3-2.3,5.3-3.5,8.5-3.5s6.3,1.3,8.5,3.5s3.5,5.3,3.5,8.5c0,3.2-1.3,6.3-3.5,8.5L71.5,65.6c-4.7,4.7-12.4,4.7-17.1,0
		c-0.5-0.5-1.2-0.5-1.7,0c-0.5,0.5-0.5,1.2,0,1.7c2.8,2.8,6.5,4.2,10.3,4.2c3.7,0,7.4-1.4,10.3-4.2l14.5-14.5
		C90.5,50,92,46.4,92,42.5C92,38.6,90.5,35,87.7,32.2z"/>
	<path d="M60.4,76.7L51,86.1c-2.3,2.3-5.3,3.5-8.5,3.5s-6.3-1.3-8.5-3.5c-4.7-4.7-4.7-12.4,0-17.1l13.7-13.7
		c4.7-4.7,12.4-4.7,17.1,0c0.5,0.5,1.2,0.5,1.7,0s0.5-1.2,0-1.7c-5.7-5.7-14.8-5.7-20.5,0L32.2,67.3C29.5,70,28,73.6,28,77.5
		c0,3.9,1.5,7.5,4.2,10.2C35,90.5,38.6,92,42.5,92c3.9,0,7.5-1.5,10.3-4.2l9.4-9.4c0.5-0.5,0.5-1.2,0-1.7
		C61.7,76.2,60.9,76.2,60.4,76.7z"/>
</g>
</svg>
