<?xml version="1.0" encoding="utf-8"?>
<!-- Generator: Adobe Illustrator 24.2.1, SVG Export Plug-In . SVG Version: 6.00 Build 0)  -->
<svg version="1.1" id="Capa_1" xmlns="http://www.w3.org/2000/svg" xmlns:xlink="http://www.w3.org/1999/xlink" x="0px" y="0px"
	 viewBox="0 0 120 120" style="enable-background:new 0 0 120 120;" xml:space="preserve">
<g>
	<path d="M31.7,61.2h-7.2c-0.8,0-1.4,0.6-1.4,1.4v26.5c0,0.8,0.6,1.4,1.4,1.4h7.2c0.8,0,1.4-0.6,1.4-1.4V62.7
		C33.1,61.9,32.4,61.2,31.7,61.2z M30.2,87.7h-4.4V64.1h4.4V87.7z"/>
	<path d="M89.3,79.7c-1.4-0.7-3-0.7-4.4-0.2l-8.4,3.2c-2.2,0.8-4.5,1-6.8,0.5l-1.4-0.3c1.5-2.2,1.2-5.1-0.6-7l-6.5-6.5
		c-2.8-2.8-6.5-4.3-10.4-4.3H36.4c-0.8,0-1.4,0.6-1.4,1.4s0.6,1.4,1.4,1.4h14.3c3.2,0,6.2,1.2,8.4,3.5l6.5,6.5c1,1,1,2.6,0,3.6
		c0,0,0,0,0,0c-1,1-2.6,1-3.6,0l-5.4-5.4c-0.6-0.5-1.5-0.4-2,0.3c-0.4,0.5-0.4,1.2,0,1.8l5.4,5.4c1.3,1.4,3.3,1.9,5.1,1.4
		c0.1,0.1,0.2,0.1,0.3,0.1l3.6,0.8c2.8,0.6,5.7,0.4,8.4-0.6l8.4-3.2c1.5-0.5,3,0.3,3.5,1.8c0.5,1.4-0.2,2.9-1.6,3.5l-13.3,5.1
		c-1.7,0.6-3.4,1-5.2,1H57.7c-1.9,0-3.8-0.5-5.5-1.4l-11.7-6.5c-1.5-0.8-3.1-1.3-4.7-1.5c-0.8-0.1-1.5,0.5-1.6,1.3
		c-0.1,0.8,0.5,1.5,1.3,1.6c1.2,0.1,2.5,0.5,3.6,1.1l11.7,6.5c2.1,1.2,4.5,1.8,7,1.8h11.7c2.1,0,4.2-0.4,6.2-1.1l13.3-5.1
		c2.9-1.1,4.4-4.4,3.3-7.3C91.6,81.4,90.6,80.3,89.3,79.7z"/>
	<path d="M96.1,36.8c-8.8-3.6-18.8,0.6-22.3,9.4c0,0,0,0,0,0L73,48.1V43c0-0.2,0-0.4-0.1-0.5v-0.1c0,0,0-0.1,0-0.1
		c0-0.1,0-0.2,0-0.3l0,0c0-0.1,0-0.2-0.1-0.2l0,0l-3-7.4c-3.6-8.8-13.6-13-22.3-9.4c-0.7,0.3-1.1,1.1-0.8,1.9c0,0,0,0,0,0.1l3,7.3
		l0,0c2.6,6.4,8.9,10.7,15.9,10.7c1.5,0,3.1-0.2,4.6-0.6v30.2c0,0.8,0.6,1.4,1.4,1.4s1.4-0.6,1.4-1.4V55.9
		c8.5,2.6,17.5-1.7,20.9-9.9l0,0l3-7.3C97.2,37.9,96.8,37.1,96.1,36.8z M52.4,33.1L52.4,33.1l-2.4-5.9c7-2.1,14.5,1.5,17.2,8.3
		l1.2,2.9l-7.8-5.3c-0.7-0.4-1.5-0.3-2,0.4c-0.4,0.7-0.3,1.5,0.4,2l9.2,6.3C61.5,43,54.9,39.4,52.4,33.1z M91.3,44.9L91.3,44.9
		c-2.6,6.3-9.2,9.9-15.8,8.6l9.2-6.3c0.7-0.4,0.8-1.3,0.4-2c-0.4-0.7-1.3-0.8-2-0.4l-7.8,5.3l1.2-2.9c2.8-6.8,10.2-10.4,17.2-8.3
		L91.3,44.9z"/>
</g>
</svg>
