<?xml version="1.0" encoding="utf-8"?>
<!-- Generator: Adobe Illustrator 24.2.1, SVG Export Plug-In . SVG Version: 6.00 Build 0)  -->
<svg version="1.1" id="Capa_1" xmlns="http://www.w3.org/2000/svg" xmlns:xlink="http://www.w3.org/1999/xlink" x="0px" y="0px"
	 viewBox="0 0 120 120" style="enable-background:new 0 0 120 120;" xml:space="preserve">
<g>
	<path d="M102.9,41.9c-0.5-0.4-1.3-0.3-1.7,0.3c-1.7,2.3-3.3,4.4-4.9,6.5c-1.2,0.6-2.4,1.3-3.6,1.9c-0.2-1.3-0.8-2.4-1.6-3.2
		c-0.9-0.9-2.5-1.8-5.4-1.6c-6.7,0.6-6.8,7.2-6.6,10.9c-7.2,2.8-13.4,4.2-19.1,4.5c-4.9-2.8-8.8-4.7-12.1-5.5
		c-2.4-0.6-3.9,0.6-4.9,2.6c-6.6-2.5-13-5.7-19.2-9.6c-1.6-2.6-3.2-5.4-4.8-8.4c-0.3-0.6-1.1-0.8-1.7-0.5c-0.6,0.3-0.8,1.1-0.5,1.7
		c1.7,3.1,3.4,6.1,5,8.8c0,0,0,0,0,0c5.7,9.2,11.5,15.9,17.5,20.4c-0.3,1.5-0.6,2.8-0.8,3.5c-2.7,1.8-4.2,3.3-4.2,4.4
		c0,0.5,0.2,1,0.6,1.4c0.3,0.3,0.7,0.4,1.3,0.4c0.3,0,0.6,0,1-0.1c0.5-0.1,5.6-1.2,6.4-2.3c0.7-1,1.1-2.4,1.4-3.7
		c4.1,2,8.3,3.1,12.6,3.1c4.5,0,9.1-1.1,13.8-3.4c8.4-4,17.3-11.9,26.5-23.3c0.2-0.1,0.4-0.3,0.5-0.6c1.6-2,3.2-4.1,4.8-6.4
		C103.6,43.1,103.4,42.3,102.9,41.9z M86,48.2c1.5-0.1,2.7,0.2,3.4,0.9c0.7,0.7,0.9,1.7,1,2.6c-3.1,1.5-6,2.9-8.8,4
		C81.5,50.6,82.8,48.5,86,48.2z M26.7,53.3c5,2.8,10.1,5.2,15.3,7.2c-0.4,1.1-0.7,2.3-1,3.4c-0.2,0.8-0.4,1.5-0.6,2.3
		c-0.2,0.5-0.3,1.2-0.5,1.8C35.4,64.5,31,59.6,26.7,53.3z M41.6,76.4c-0.6,0.3-2.3,0.8-3.7,1.2c0.6-0.5,1.5-1.1,2.3-1.6
		c0.3-0.2,0.5-0.5,0.5-0.8c0-0.1,1.2-5.5,2-8.3c0.2-0.8,0.4-1.6,0.6-2.3c1.3-4.8,2.1-7,4-6.6c2.1,0.5,4.5,1.5,7.4,3
		c-1-0.1-2.1-0.2-3.1-0.4c-0.2,0-0.4,0-0.5,0c-0.1-0.1-0.3-0.2-0.5-0.2c-3.8-0.9-5.7,5.3-6.9,9c-0.1,0.3-0.2,0.7-0.3,0.9
		c-0.2,0.7-0.4,1.5-0.6,2.3C42.5,74,42.1,75.5,41.6,76.4z M45.6,71.8c0.1-0.2,0.1-0.4,0.2-0.6c0.1-0.3,0.2-0.6,0.3-0.9
		c2.1-6.7,3.4-7.5,4-7.3c0.2,0,0.4,0,0.6,0c0.2,0.1,0.3,0.2,0.5,0.2c2.3,0.4,4.5,0.6,6.9,0.6c0.5,0,1,0,1.4,0c0.2,0,0.3,0,0.5,0
		c9-0.4,19.2-3.6,32.2-10.1C75.1,73.2,59.8,79.2,45.6,71.8z"/>
</g>
</svg>
