<?xml version="1.0" encoding="utf-8"?>
<!-- Generator: Adobe Illustrator 23.0.1, SVG Export Plug-In . SVG Version: 6.00 Build 0)  -->
<svg version="1.1" id="Capa_1" xmlns="http://www.w3.org/2000/svg" xmlns:xlink="http://www.w3.org/1999/xlink" x="0px" y="0px"
	 viewBox="0 0 120 37.1" style="enable-background:new 0 0 120 37.1;" xml:space="preserve">
<style type="text/css">
	.st0{fill:#FFFFFF;}
</style>
<g>
	<g>
		<g>
			<g>
				<path class="st0" d="M33.3,18.2c-2.3,0.1-4.6-2.3-4.6-2.3l-1.4-1.4c1.1-0.4,2.4-1,3.4-2c0.4,0.2,0.9,0.3,1.4,0.3
					c0.4,0,0.9-0.1,1.3-0.2c-0.1-0.4-0.3-0.7-0.4-1.1c-0.6,0.1-1.1,0.2-1.6,0c0.3-0.6,0.6-1.2,0.7-1.8c-0.3-0.6-0.7-1.1-1.1-1.7
					c0.1,1.1-0.1,2.1-0.6,2.9c-1.1-1.1-1.2-3.3-1.2-3.3l-1.1,0c0,0.1,0.1,2.7,1.7,4.2c-1,0.9-2.4,1.4-3.4,1.7l-3.1-3.1
					c0.1-0.9,0.4-2.2,0.8-3.6c0.1,0,0.3,0,0.4,0c1.1,0,2.4-0.5,3.8-1.6l-0.3-0.5c-0.2-0.1-0.3-0.2-0.5-0.4c-1.2,0.9-2.2,1.3-3,1.3
					c0.3-1,0.8-1.8,1.3-2.4c-0.3-0.2-0.7-0.4-1.1-0.5c-0.5,0.6-0.9,1.5-1.3,2.5c-0.6-0.5-1-1.3-1.2-2.1c-0.4,0.1-0.7,0.3-1.1,0.5
					c0.3,1,0.9,2.2,1.9,2.7c-0.1,0.2-0.1,0.4-0.2,0.5c-0.2,0.9-0.4,1.8-0.5,2.4L19.7,7l-0.8,0.8l6.1,6.1c0,0,0,0,0,0l0,0.1
					c-0.1,0-0.3,0.1-0.4,0.1c-0.7,0.1-1.8,0.2-2.7-0.3c-0.8-0.4-1.3-1.1-1.6-2.1L19.1,12c0.4,1.3,1.2,2.3,2.3,2.8
					c0.7,0.3,1.5,0.5,2.2,0.5c1,0,2-0.2,2.5-0.4l1.8,1.8c0.2,0.2,2.6,2.6,5.3,2.6c0.1,0,0.2,0,0.2,0c0.3,0,0.6-0.1,0.8-0.1
					c0-0.4,0.1-0.8,0.1-1.2C33.9,18.1,33.6,18.2,33.3,18.2z"/>
				<path class="st0" d="M16.3,31.4c-0.2,0-0.3-0.1-0.5-0.1c-1.2-0.3-1.5-1.6-1.6-2.4h1.3v-1.2h-3.2v-1.3c0.7-0.3,2.1-1,3.6-2.6l0,0
					c1.3-1.4,2-2.9,2.2-4.4c0.1-1.2,0-2.4-0.5-3.6c0.7,0.1,1.6,0.5,2.7,1.3l0.7-0.9c-1.5-1.2-2.9-1.7-4-1.5c-0.5-0.8-1.2-1.5-1.9-2
					l1.6-1.6l0,0l0,0c1.3-1.7,1-3.4,0.4-4.4c0.5-0.3,1.1-0.9,1.5-1.7c0.4-1,0.4-2.2,0-3.5c-0.3,0-0.5,0-0.8,0c-0.1,0-0.3,0-0.4,0
					c0.3,0.7,0.4,1.4,0.4,2c-0.3,0-0.7-0.1-1-0.3c-0.4-0.3-0.6-0.9-0.6-1.6c-0.4,0-0.8,0.1-1.1,0.2C15,2.7,15.4,3.5,16,4
					c0.5,0.4,1,0.5,1.5,0.5c-0.3,0.6-0.8,1-1.1,1.2c-0.7-0.6-1.7-0.9-2.8-1.3C12.1,4,11,3.6,10.8,2.9c-0.4,0.2-0.7,0.3-1,0.5
					c0.2,0.4,0.5,0.8,1,1.1c0.7,0.4,1.6,0.7,2.5,1c1,0.3,2.1,0.7,2.6,1.2l0,0c0,0,0.4,0.4,0.5,1c0.2,0.8,0.1,1.7-0.6,2.5l-1.8,1.8
					c-0.7-0.4-1.5-0.7-2.3-0.8c0.3-1,0.4-2.3-0.6-3.4l-0.9,0.8c0.8,0.9,0.5,2,0.3,2.6c-0.3,0-0.7,0-1,0.1c-1.2,0.2-2.2,0-2.9-0.6
					C5.6,9.8,5.3,8.1,5.2,7.1C4.8,7.5,4.5,8,4.2,8.4c0.2,1.1,0.7,2.3,1.7,3.2c1,0.9,2.3,1.2,3.9,0.9c0.1,0,0.2,0,0.3,0
					c-0.1,0.1-0.2,0.3-0.3,0.4c-0.6,0.7-1.4,1-2.4,0.9l-0.1,1.1c0.2,0,0.4,0,0.6,0c2,0,3.2-1.4,3.6-2.5c0.6,0.1,1.3,0.3,1.9,0.5
					l-6.4,6.4l0.8,0.8l6.6-6.6c0.6,0.4,1.2,1,1.6,1.6c-1.3,0.9-1.5,2.9-1.5,3l1.1,0.1c0-0.4,0.3-1.5,0.9-2.1c1,2.2,0.6,4.6-1.1,6.6
					l0,0c-1.2,1.4-2.3,2.1-3,2.4v-2.2c0.7-0.1,1.5-0.4,2.3-1L14,21.1c-0.6,0.4-1.2,0.7-1.7,0.8v-3.3h-1.2v3.2c-0.7-0.3-1-1.1-1-1.1
					l-0.5,0.2l-0.5,0.2c0,0.1,0.5,1.5,1.9,1.9c0.1,0,0.1,0,0.2,0V29h1.9c0,0.3,0.1,0.7,0.2,1.1c0.1,0.2,0.1,0.4,0.2,0.5
					c-0.1,0.1-0.2,0.2-0.4,0.3c-1.6,0-2.7-0.5-3.3-1.3c-0.8-1.1-0.5-2.5-0.5-2.7c0.1-0.3,0.6-1.9-0.1-3.5c-0.5-1.1-1.5-2-3-2.5
					c-1.2-0.4-2.1-1.2-2.9-2.1c0.4-0.4,0.9-1.2,1.2-2.2c0.5-1.5,0.6-3.8-1.6-6.3L3,10.4c-0.2,0.3-0.3,0.7-0.5,1.1
					c2.3,3,1,5.4,0.2,6.4c-0.2-0.3-0.4-0.6-0.5-0.9c-0.3-0.6-0.6-1.1-0.8-1.5c-0.1,0.7-0.2,1.5-0.2,2.2c1.3,2.2,2.9,3.7,4.7,4.4
					c0.3,0.1,0.5,0.2,0.8,0.4c-0.6,0.2-1.3,0.5-2.1,1c-0.7,0.5-1.3,1-1.8,1.6c0.2,0.4,0.4,0.8,0.6,1.1c0.4-0.5,0.8-1,1.4-1.5
					c0.2,0.4,0.4,1,0.4,1.7c-0.1,0.5-0.3,1-0.7,1.4c0.2,0.3,0.5,0.6,0.7,0.9c0.7-0.7,1-1.4,1.1-2.2c0.1-1-0.2-1.9-0.5-2.4
					c0.9-0.5,1.7-0.7,2-0.8c0.2,0.2,0.3,0.4,0.4,0.7c0.6,1.3,0.1,2.6,0,2.6l0,0l0,0c0,0.1-0.6,2.1,0.6,3.7c0.7,0.9,1.8,1.5,3.3,1.7
					c-0.2,0.3-0.5,0.8-0.6,1.2c0.4,0.1,0.7,0.3,1.1,0.4c0.4-1.1,1.1-1.7,1.6-2c0.4,0.4,0.9,0.7,1.4,0.9c0.2,0,0.4,0.1,0.5,0.1
					c0.6,0.1,1.1,0.2,1.5,0.7c0.2,0.3,0.4,0.7,0.5,1.2c0.4,0,0.8,0,1.2-0.1c-0.1-0.8-0.4-1.4-0.7-1.8C17.8,31.8,17,31.6,16.3,31.4z"
					/>
				<path class="st0" d="M24.4,28.6c0.1,0.1,0.1,0.1,0.2,0.2c0.9,0.8,2.2,1,3.1,1c0.8,0,1.5-0.1,1.5-0.2L29,28.5
					c0,0-2.4,0.5-3.6-0.6c-0.1-0.1-0.1-0.1-0.2-0.2c0.9-0.8,1.9-1.5,3.2-2c0.1,0,0.1,0,0.2-0.1c0,0,0,0,0,0c0.6,0.6,1.5,0.9,2.6,0.9
					c0.2,0,0.4,0,0.6,0c0.3-0.4,0.5-0.8,0.7-1.3c-1.1,0.2-2,0.2-2.7-0.1c1.2-0.7,2.5-1.9,2.2-4.3L30.9,21c0.2,1.8-0.7,2.7-2,3.3
					c-0.6-1.1-0.3-2.6-0.3-2.7l-1.1-0.2c0,0.1-0.3,1.9,0.4,3.3c-1.3,0.5-2.3,1.1-3.1,1.8v-5c1.1-0.3,2.2-1.2,3.1-2.7l-1-0.6
					c-0.7,1.1-1.4,1.8-2.1,2.1v-4.1h-1.2v4.2c-1.5-0.3-2.7-2.2-2.7-2.2l-1,0.6c0.1,0.1,1.6,2.4,3.7,2.7v3.9h-7v1.2h3.3
					c0.1,0.3,0.2,1.7-1.8,3l0.6,1c2.3-1.5,2.4-3.2,2.3-4l2.7,0c0,0,0,0,0,0c0,0.3,0.1,0.6,0.1,0.8c-0.9,1-1.4,2.1-1.8,3.1
					c-0.5,1.5-0.6,2.8-0.6,3.4c0.4-0.1,0.8-0.2,1.2-0.3c0-0.6,0.1-1.6,0.5-2.7C23.5,30.1,23.9,29.3,24.4,28.6z"/>
			</g>
		</g>
	</g>
	<g>
		<g>
			<g>
				<g>
					<polygon class="st0" points="56.4,30 56.1,30 59.2,23.5 59.3,23.5 62.3,30 61.4,30 58.9,24.6 					"/>
				</g>
				<g>
					<path class="st0" d="M69.2,25.5c-0.2-0.4-0.4-0.7-0.8-1c-0.3-0.3-0.7-0.5-1.2-0.6c-0.5-0.1-1.1-0.2-1.7-0.2h-1.2v0.2h1.3
						c0.4,0,0.8,0.1,1.1,0.2c0.3,0.1,0.6,0.3,0.9,0.6c0.2,0.3,0.4,0.6,0.6,0.9c0.1,0.4,0.2,0.7,0.2,1.2c0,0.5-0.1,0.9-0.2,1.3
						c-0.1,0.4-0.3,0.7-0.6,0.9c-0.3,0.3-0.6,0.4-0.9,0.6c-0.3,0.1-0.7,0.2-1.1,0.2h-1.3V30l1.5,0c0.6,0,1.1-0.1,1.6-0.3
						c0.5-0.2,0.8-0.4,1.2-0.7c0.3-0.3,0.5-0.6,0.7-1c0.2-0.4,0.2-0.8,0.2-1.3C69.5,26.3,69.4,25.9,69.2,25.5z"/>
				</g>
				<g>
					<polygon class="st0" points="71.9,29.9 71.9,26.7 73.2,26.7 73.2,26.5 71.9,26.5 71.9,23.9 73.2,23.9 73.2,23.7 71.1,23.7 
						71.1,30 73.2,30 73.2,29.9 					"/>
				</g>
				<g>
					<polygon class="st0" points="81.9,28.5 81.6,28.5 77.3,23.7 76.9,23.7 76.9,30 77.1,30 77.1,24.8 77.4,24.8 82,30.2 82.1,30.2 
						82.1,26.9 81.9,26.9 					"/>
				</g>
				<g>
					<polygon class="st0" points="84.6,23.7 84.6,23.9 85.8,23.9 85.8,30 86.6,30 86.6,23.9 87.8,23.9 87.8,23.7 					"/>
				</g>
				<g>
					<path class="st0" d="M93,26.9l0.2,0c0.2-0.1,0.4-0.1,0.6-0.2c0.2-0.1,0.3-0.2,0.5-0.4c0.1-0.1,0.2-0.3,0.3-0.4
						c0.1-0.2,0.1-0.3,0.1-0.5c0-0.2,0-0.4-0.1-0.6c-0.1-0.2-0.2-0.4-0.4-0.5c-0.2-0.1-0.4-0.3-0.7-0.3c-0.3-0.1-0.6-0.1-1-0.1h-1.3
						v0.2h1.1c0.2,0,0.4,0,0.6,0.1c0.2,0.1,0.3,0.2,0.5,0.3c0.1,0.1,0.2,0.3,0.3,0.5c0.1,0.2,0.1,0.4,0.1,0.6c0,0.2,0,0.4-0.1,0.6
						c-0.1,0.2-0.2,0.4-0.4,0.5c-0.2,0.1-0.4,0.2-0.6,0.3c-0.2,0.1-0.5,0.1-0.7,0.1h-0.8v0.1h1l2.3,3.1h1L93,26.9z"/>
				</g>
				<g>
					<path class="st0" d="M98.4,29.9c-0.3-0.2-0.6-0.4-0.8-0.7c-0.2-0.3-0.4-0.6-0.5-1c-0.1-0.4-0.2-0.8-0.2-1.3
						c0-0.5,0.1-0.9,0.2-1.3c0.1-0.4,0.3-0.7,0.5-1c0.2-0.3,0.5-0.5,0.8-0.7c0.3-0.2,0.7-0.2,1.1-0.2c0.4,0,0.7,0.1,1.1,0.2
						c0.3,0.2,0.6,0.4,0.8,0.7c0.2,0.3,0.4,0.6,0.5,1c0.1,0.4,0.2,0.8,0.2,1.3c0,0,0,0,0,0h1c0,0,0,0,0,0c0-0.3,0-0.6-0.1-0.9
						c-0.1-0.3-0.2-0.5-0.3-0.8c-0.1-0.2-0.3-0.5-0.5-0.7c-0.2-0.2-0.5-0.4-0.7-0.5c-0.3-0.1-0.5-0.3-0.8-0.3
						c-0.3-0.1-0.6-0.1-0.9-0.1c-0.3,0-0.6,0-0.9,0.1c-0.3,0.1-0.6,0.2-0.8,0.3c-0.3,0.1-0.5,0.3-0.7,0.5c-0.2,0.2-0.4,0.4-0.5,0.7
						c-0.1,0.2-0.3,0.5-0.3,0.8C96,26.2,96,26.5,96,26.8c0,0.3,0,0.6,0.1,0.9c0.1,0.3,0.2,0.6,0.3,0.8c0.1,0.2,0.3,0.5,0.5,0.7
						c0.2,0.2,0.4,0.4,0.7,0.5c0.3,0.1,0.5,0.3,0.8,0.3c0.3,0.1,0.6,0.1,0.9,0.1v-0.1C99.1,30.1,98.7,30,98.4,29.9z"/>
				</g>
			</g>
			<g>
				<path class="st0" d="M45.7,13.6c0,0.8,0.1,1.5,0.4,2.1c0.2,0.6,0.6,1.1,1,1.6c0.4,0.4,0.9,0.7,1.4,1c0.6,0.2,1.2,0.3,1.8,0.3
					c0.4,0,0.8-0.1,1.1-0.2c0.4-0.2,0.7-0.3,1-0.6c0.3-0.2,0.6-0.5,0.8-0.8c0.2-0.3,0.4-0.6,0.6-0.9l0.8,0.5
					c-0.2,0.4-0.5,0.7-0.8,1.1c-0.3,0.3-0.7,0.6-1.1,0.9c-0.4,0.3-0.9,0.5-1.4,0.6c-0.5,0.2-1.1,0.2-1.7,0.2c-0.9,0-1.7-0.2-2.5-0.5
					c-0.7-0.3-1.4-0.7-1.9-1.2c-0.5-0.5-0.9-1.1-1.2-1.8c-0.3-0.7-0.4-1.4-0.4-2.2c0-0.8,0.1-1.5,0.4-2.2c0.3-0.7,0.7-1.3,1.3-1.8
					c0.5-0.5,1.2-1,1.9-1.3c0.8-0.3,1.6-0.5,2.5-0.5c0.6,0,1.1,0.1,1.6,0.2c0.5,0.2,0.9,0.4,1.4,0.6c0.4,0.3,0.8,0.6,1.1,0.9
					c0.3,0.3,0.6,0.7,0.8,1.1l-0.8,0.5c-0.5-0.9-1-1.5-1.5-2c-0.6-0.4-1.2-0.6-2-0.6c-0.6,0-1.2,0.1-1.8,0.3c-0.6,0.2-1,0.6-1.5,1
					c-0.4,0.4-0.7,1-1,1.6C45.8,12.1,45.7,12.8,45.7,13.6z"/>
				<path class="st0" d="M61,13.7V19h-1.9V8H61v5h5.5V8h1.9v11h-1.9v-5.3H61z"/>
				<path class="st0" d="M73.5,8h1.9v11h-1.9V8z"/>
				<path class="st0" d="M80.4,8h1.9v10.3h5.5V19h-7.4V8z"/>
				<path class="st0" d="M97.3,19.3c-0.9,0-1.6-0.2-2.4-0.5c-0.7-0.3-1.4-0.7-1.9-1.3c-0.5-0.5-1-1.1-1.3-1.9
					c-0.3-0.7-0.5-1.5-0.5-2.3c0-0.8,0.2-1.5,0.5-2.2c0.3-0.7,0.7-1.3,1.3-1.8c0.5-0.5,1.2-0.9,1.9-1.2c0.7-0.3,1.5-0.4,2.4-0.4
					c0.9,0,1.6,0.1,2.4,0.4c0.7,0.3,1.4,0.7,1.9,1.2c0.5,0.5,1,1.1,1.3,1.8c0.3,0.7,0.5,1.4,0.5,2.2c0,0.8-0.2,1.6-0.5,2.3
					c-0.3,0.7-0.7,1.3-1.3,1.9c-0.5,0.5-1.2,0.9-1.9,1.3C98.9,19.1,98.1,19.3,97.3,19.3z M97.3,18.7c0.6,0,1.2-0.1,1.7-0.4
					c0.5-0.3,0.9-0.6,1.2-1.1c0.3-0.5,0.6-1,0.8-1.7c0.2-0.6,0.3-1.4,0.3-2.1c0-0.8-0.1-1.4-0.3-2.1c-0.2-0.6-0.4-1.2-0.8-1.6
					c-0.3-0.5-0.7-0.8-1.2-1.1c-0.5-0.3-1-0.4-1.7-0.4c-0.6,0-1.2,0.1-1.7,0.4c-0.5,0.3-0.9,0.6-1.2,1.1c-0.3,0.5-0.6,1-0.7,1.6
					c-0.2,0.6-0.2,1.3-0.2,2.1c0,0.8,0.1,1.5,0.2,2.1c0.2,0.6,0.4,1.2,0.7,1.7c0.3,0.5,0.7,0.8,1.2,1.1
					C96.1,18.6,96.6,18.7,97.3,18.7z"/>
				<path class="st0" d="M115.6,8v0.7h-5.8v3.9h3.9v0.7h-3.9v4.9h5.8V19h-7.7V8H115.6z"/>
			</g>
		</g>
	</g>
</g>
</svg>
