<?xml version="1.0" encoding="utf-8"?>
<!-- Generator: Adobe Illustrator 24.2.1, SVG Export Plug-In . SVG Version: 6.00 Build 0)  -->
<svg version="1.1" id="Capa_1" xmlns="http://www.w3.org/2000/svg" xmlns:xlink="http://www.w3.org/1999/xlink" x="0px" y="0px"
	 viewBox="0 0 193.2 174.5" style="enable-background:new 0 0 193.2 174.5;" xml:space="preserve">
<style type="text/css">
	.st0{fill-rule:evenodd;clip-rule:evenodd;fill:#FFFFFF;}
</style>
<g>
	<g>
		<path class="st0" d="M79.1,60.2L79.1,60.2v26c0,9.9,8.1,18,18,18c9.9,0,18-8.1,18-18v-26c0-9.9-8.1-18-18-18
			C87.1,42.1,79.1,50.2,79.1,60.2L79.1,60.2z M75.1,60.2c0-12.2,9.8-22,22-22c12.2,0,22,9.8,22,22v26c0,12.2-9.8,22-22,22
			c-12.2,0-22-9.8-22-22V60.2L75.1,60.2z"/>
		<path class="st0" d="M95.1,54.2c0-1.1,0.9-2,2-2c1.1,0,2,0.9,2,2v8c0,1.1-0.9,2-2,2c-1.1,0-2-0.9-2-2V54.2z"/>
		<path class="st0" d="M97.1,131.7l14.8-14.8c0.8-0.8,2-0.8,2.8,0c0.8,0.8,0.8,2,0,2.8L98.5,136c-0.4,0.4-0.9,0.6-1.4,0.6
			c-0.5,0-1-0.2-1.4-0.6l-16.3-16.3c-0.8-0.8-0.8-2,0-2.8c0.8-0.8,2-0.8,2.8,0L97.1,131.7z"/>
	</g>
</g>
</svg>
